# xmcd CD database file
#
# Track frame offsets:
#	150
#	900
#	1650
#	2400
#	81810
#
# Disc length: 4440 seconds
#
# Revision: 2
# Processed by: cddbd v1.5.1PL0 Copyright (c) Steve Scherf et al.
# Submitted via: CDex 1.51
#
DISCID=18115605
DTITLE=Ronan Keating and Jeanette - We've Got Tonight
DYEAR=2002
DGENRE=Misc
TTITLE0=夕焼けのファルセット
TTITLE1=State of mind
TTITLE2=GLORY DAYS(live at 日比谷野外大音楽堂 2004.5.10)
TTITLE3=和(live at 日比谷野外大音楽堂 2004.5.10)
TTITLE4=etc...
EXTD=YEAR: 2002
EXTT0=
EXTT1=
EXTT2=
EXTT3=
EXTT4=
PLAYORDER=
